<svg width="800" height="157" viewBox="0 0 800 157" fill="none" xmlns="http://www.w3.org/2000/svg">
<g clip-path="url(#clip0_4571_13332)">
<path d="M626.083 55.0059H607.137V121.596H626.083V55.0059Z" fill="black"/>
<path d="M626.083 33.0591H607.137V47.7831H626.083V33.0591Z" fill="black"/>
<path d="M212.888 33.0591H193.084V121.596H253.555V104.622H212.888V33.0591Z" fill="black"/>
<path d="M292.691 49.4653C271.613 49.4653 254.928 65.7325 254.928 86.2326C254.928 106.733 271.613 123.043 292.691 123.043C313.77 123.043 330.595 106.776 330.595 86.2647C330.595 65.7539 313.899 49.4653 292.691 49.4653ZM292.691 105.468C282.082 105.468 274.163 97.4096 274.163 86.179C274.163 74.9484 282.082 66.9541 292.691 66.9541C303.3 66.9541 311.22 75.152 311.22 86.179C311.22 97.206 303.3 105.468 292.691 105.468Z" fill="black"/>
<path d="M410.056 106.605C406.659 106.605 403.691 104.622 403.691 98.5461V70.2661H421.758V55.0062H403.691V35.8135H384.744V55.0062H359.862V35.8135H340.915V55.0062H330.596V70.2661H340.915V98.8248C340.915 114.803 348.556 123.011 362.691 123.011C369.073 123.024 375.319 121.16 380.651 117.653L375.293 103.658C372.61 105.471 369.474 106.5 366.238 106.626C362.841 106.626 359.872 104.644 359.872 98.5675V70.2661H384.755V98.8248C384.755 114.803 392.385 123.011 406.531 123.011C412.913 123.022 419.158 121.159 424.491 117.653L419.133 103.658C416.443 105.47 413.298 106.491 410.056 106.605V106.605Z" fill="black"/>
<path d="M529.842 81.2502C526.948 61.3716 509.62 47.3119 490.577 50.0874C485.788 50.7412 481.178 52.3446 477.017 54.8035C472.856 57.2625 469.227 60.5276 466.345 64.4073C463.462 68.287 461.383 72.7033 460.23 77.397C459.077 82.0907 458.873 86.9675 459.629 91.7413C462.983 114.835 482.84 125.529 503.265 122.55C512.516 121.25 521.18 117.259 528.18 111.073L519.222 98.6533C514.108 103.073 507.827 105.924 501.133 106.862C491.895 108.201 483.247 104.719 479.604 95.4169L530.399 88.0228C530.338 85.7567 530.152 83.4957 529.842 81.2502V81.2502ZM477.503 82.9969C478.039 73.9203 484.19 67.019 492.302 65.851C496.424 65.21 500.638 66.0937 504.156 68.3366C507.673 70.5795 510.252 74.0277 511.409 78.0353L477.503 82.9969Z" fill="black"/>
<path d="M735.517 81.2502C732.623 61.3716 715.285 47.3119 696.253 50.0874C691.463 50.7398 686.852 52.3423 682.69 54.8009C678.528 57.2594 674.9 60.5245 672.017 64.4046C669.134 68.2846 667.055 72.7014 665.903 77.3957C664.75 82.0901 664.546 86.9673 665.304 91.7413C668.658 114.835 688.505 125.529 708.941 122.55C718.188 121.25 726.849 117.259 733.845 111.073L724.897 98.6533C719.779 103.074 713.495 105.924 706.798 106.862C697.56 108.201 688.912 104.719 685.269 95.4169L736.074 88.0228C736.007 85.757 735.821 83.4963 735.517 81.2502V81.2502ZM683.179 82.9969C683.715 73.9203 689.855 67.019 697.978 65.851C702.095 65.2071 706.306 66.0903 709.817 68.3343C713.328 70.5784 715.898 74.0285 717.042 78.0353L683.179 82.9969Z" fill="black"/>
<path d="M657.193 33.0591H638.246V121.586H657.193V33.0591Z" fill="black"/>
<path d="M774.749 77.3274C768.244 75.9128 762.307 74.6376 762.307 70.6833C762.307 67.7149 766.411 65.7324 770.794 65.7324C777.64 65.8411 784.367 67.5357 790.448 70.6833L796.813 56.5379C788.906 51.7008 779.771 49.2453 770.504 49.4652C757.216 49.4652 743.071 57.1059 743.071 71.5299C743.071 85.1073 754.527 89.7474 768.533 93.4445C774.609 95.1484 780.696 96.1343 780.696 100.378C780.696 104.621 773.484 106.315 769.09 106.315C761.088 106.471 753.284 103.816 747.036 98.8133L740.242 113.398C744.207 117.074 753.959 123.043 769.09 123.043C782.25 123.043 799.921 117.245 799.921 99.8421C799.921 85.3859 786.815 80.1779 774.749 77.3274Z" fill="black"/>
<path d="M451.056 55.0059H432.109V121.596H451.056V55.0059Z" fill="black"/>
<path d="M451.056 33.0591H432.109V47.7831H451.056V33.0591Z" fill="black"/>
<path d="M537.91 121.596H557.671V85.4185H591.18V68.6261H557.671V50.0014H598.382V33.0591H537.91V121.596Z" fill="black"/>
<path d="M116.582 0H39.4893C17.68 0 0 17.6799 0 39.4892V116.582C0 138.391 17.68 156.071 39.4893 156.071H116.582C138.391 156.071 156.071 138.391 156.071 116.582V39.4892C156.071 17.6799 138.391 0 116.582 0Z" fill="#00DDB3"/>
<path d="M118.618 34.9561C91.7529 34.9561 81.7974 54.1381 73.7924 69.548L68.563 79.4069C60.0865 95.7491 53.7534 105.683 37.4327 105.683C36.4194 105.683 35.4161 105.883 34.48 106.27C33.5439 106.658 32.6932 107.226 31.9767 107.943C31.2603 108.659 30.6916 109.51 30.3039 110.446C29.9161 111.382 29.7168 112.385 29.7168 113.399V113.399C29.7196 115.444 30.5335 117.405 31.9799 118.851C33.4262 120.298 35.3872 121.112 37.4327 121.114V121.114C64.3089 121.114 74.2641 101.932 82.2691 86.5224L87.488 76.6635C95.9752 60.3213 102.308 50.3874 118.618 50.3874C119.633 50.3888 120.637 50.1903 121.574 49.8031C122.512 49.416 123.364 48.848 124.081 48.1313C124.799 47.4147 125.368 46.5637 125.757 45.6269C126.145 44.6901 126.345 43.6859 126.345 42.6717V42.6717C126.342 40.6244 125.527 38.662 124.078 37.2153C122.629 35.7686 120.666 34.9561 118.618 34.9561V34.9561Z" fill="white"/>
</g>
<defs>
<clipPath id="clip0_4571_13332">
<rect width="800" height="156.098" fill="white"/>
</clipPath>
</defs>
</svg>
